<svg xmlns="http://www.w3.org/2000/svg" width="47.999" height="48.025" viewBox="0 0 47.999 48.025">
  <path id="Forma_1" data-name="Forma 1" d="M315.438,6485.47a1.707,1.707,0,0,1-1.7-1.721,1.686,1.686,0,0,1,1.7-1.7h20.581v-20.582a1.73,1.73,0,0,1,1.723-1.722,1.707,1.707,0,0,1,1.7,1.722v20.582h20.58a1.707,1.707,0,0,1,1.721,1.7,1.728,1.728,0,0,1-1.721,1.721h-20.58v20.583a1.708,1.708,0,0,1-1.7,1.721,1.728,1.728,0,0,1-1.721-1.721V6485.47Z" transform="translate(-313.741 -6459.749)" fill="#fff"/>
</svg>
