
<svg xmlns="http://www.w3.org/2000/svg" width="19.823" height="19.823" viewBox="0 0 19.823 19.823">
  <g id="search" transform="translate(-1218.061 -39.161)">
    <path id="Forma_1" data-name="Forma 1" d="M1235.959,53.768l-4.086-4.086a8.37,8.37,0,0,0,.816-8.01,8.208,8.208,0,0,0-4.467-4.467,8.349,8.349,0,0,0-6.517,0,8.208,8.208,0,0,0-4.467,4.467,8.356,8.356,0,0,0,0,6.515,8.2,8.2,0,0,0,4.467,4.467,8.374,8.374,0,0,0,8.012-.816l4.086,4.074a1.412,1.412,0,0,0,1.072.453,1.525,1.525,0,0,0,1.084-2.6Zm-7.225-5.069a5.317,5.317,0,1,1,1.567-3.769A5.137,5.137,0,0,1,1228.734,48.7Z" transform="translate(1.484 2.618)"/>
  </g>
</svg>
